<?xml version="1.0" encoding="UTF-8"?>
<!DOCTYPE svg PUBLIC "-//W3C//DTD SVG 1.1//EN" "http://www.w3.org/Graphics/SVG/1.1/DTD/svg11.dtd">
<svg xmlns="http://www.w3.org/2000/svg" version="1.1" width="800px" height="800px" style="shape-rendering:geometricPrecision; text-rendering:geometricPrecision; image-rendering:optimizeQuality; fill-rule:evenodd; clip-rule:evenodd" xmlns:xlink="http://www.w3.org/1999/xlink">
<g><path style="opacity:1" fill="#edeeed" d="M -0.5,-0.5 C 266.167,-0.5 532.833,-0.5 799.5,-0.5C 799.5,266.167 799.5,532.833 799.5,799.5C 532.833,799.5 266.167,799.5 -0.5,799.5C -0.5,532.833 -0.5,266.167 -0.5,-0.5 Z"/></g>
<g><path style="opacity:1" fill="#335383" d="M 48.5,48.5 C 105.167,48.5 161.833,48.5 218.5,48.5C 218.5,105.167 218.5,161.833 218.5,218.5C 161.833,218.5 105.167,218.5 48.5,218.5C 48.5,161.833 48.5,105.167 48.5,48.5 Z"/></g>
<g><path style="opacity:1" fill="#335383" d="M 266.5,48.5 C 274.5,48.5 282.5,48.5 290.5,48.5C 290.5,56.5 290.5,64.5 290.5,72.5C 282.5,72.5 274.5,72.5 266.5,72.5C 266.5,64.5 266.5,56.5 266.5,48.5 Z"/></g>
<g><path style="opacity:1" fill="#335383" d="M 460.5,72.5 C 460.5,80.5 460.5,88.5 460.5,96.5C 452.5,96.5 444.5,96.5 436.5,96.5C 436.5,112.833 436.5,129.167 436.5,145.5C 444.5,145.5 452.5,145.5 460.5,145.5C 460.5,137.5 460.5,129.5 460.5,121.5C 468.5,121.5 476.5,121.5 484.5,121.5C 484.5,113.167 484.5,104.833 484.5,96.5C 492.833,96.5 501.167,96.5 509.5,96.5C 509.5,112.833 509.5,129.167 509.5,145.5C 525.5,145.5 541.5,145.5 557.5,145.5C 557.5,169.833 557.5,194.167 557.5,218.5C 549.5,218.5 541.5,218.5 533.5,218.5C 533.5,202.167 533.5,185.833 533.5,169.5C 517.167,169.5 500.833,169.5 484.5,169.5C 484.5,177.5 484.5,185.5 484.5,193.5C 476.5,193.5 468.5,193.5 460.5,193.5C 460.5,185.5 460.5,177.5 460.5,169.5C 444.5,169.5 428.5,169.5 412.5,169.5C 412.5,161.5 412.5,153.5 412.5,145.5C 404.167,145.5 395.833,145.5 387.5,145.5C 387.5,137.5 387.5,129.5 387.5,121.5C 371.5,121.5 355.5,121.5 339.5,121.5C 339.5,145.5 339.5,169.5 339.5,193.5C 331.5,193.5 323.5,193.5 315.5,193.5C 315.5,209.833 315.5,226.167 315.5,242.5C 323.5,242.5 331.5,242.5 339.5,242.5C 339.5,250.5 339.5,258.5 339.5,266.5C 331.5,266.5 323.5,266.5 315.5,266.5C 315.5,274.5 315.5,282.5 315.5,290.5C 299.167,290.5 282.833,290.5 266.5,290.5C 266.5,282.5 266.5,274.5 266.5,266.5C 274.5,266.5 282.5,266.5 290.5,266.5C 290.5,242.167 290.5,217.833 290.5,193.5C 282.5,193.5 274.5,193.5 266.5,193.5C 266.5,209.833 266.5,226.167 266.5,242.5C 258.5,242.5 250.5,242.5 242.5,242.5C 242.5,193.833 242.5,145.167 242.5,96.5C 250.5,96.5 258.5,96.5 266.5,96.5C 266.5,112.833 266.5,129.167 266.5,145.5C 274.5,145.5 282.5,145.5 290.5,145.5C 290.5,153.5 290.5,161.5 290.5,169.5C 298.833,169.5 307.167,169.5 315.5,169.5C 315.5,153.5 315.5,137.5 315.5,121.5C 307.167,121.5 298.833,121.5 290.5,121.5C 290.5,113.167 290.5,104.833 290.5,96.5C 314.833,96.5 339.167,96.5 363.5,96.5C 363.5,88.5 363.5,80.5 363.5,72.5C 347.5,72.5 331.5,72.5 315.5,72.5C 315.5,64.5 315.5,56.5 315.5,48.5C 355.833,48.5 396.167,48.5 436.5,48.5C 436.5,56.5 436.5,64.5 436.5,72.5C 444.5,72.5 452.5,72.5 460.5,72.5 Z"/></g>
<g><path style="opacity:1" fill="#335383" d="M 460.5,72.5 C 460.5,64.5 460.5,56.5 460.5,48.5C 492.833,48.5 525.167,48.5 557.5,48.5C 557.5,72.8333 557.5,97.1667 557.5,121.5C 549.5,121.5 541.5,121.5 533.5,121.5C 533.5,105.167 533.5,88.8333 533.5,72.5C 509.167,72.5 484.833,72.5 460.5,72.5 Z"/></g>
<g><path style="opacity:1" fill="#335383" d="M 581.5,48.5 C 638.167,48.5 694.833,48.5 751.5,48.5C 751.5,105.167 751.5,161.833 751.5,218.5C 694.833,218.5 638.167,218.5 581.5,218.5C 581.5,161.833 581.5,105.167 581.5,48.5 Z"/></g>
<g><path style="opacity:1" fill="#edeeed" d="M 72.5,72.5 C 112.833,72.5 153.167,72.5 193.5,72.5C 193.5,112.833 193.5,153.167 193.5,193.5C 153.167,193.5 112.833,193.5 72.5,193.5C 72.5,153.167 72.5,112.833 72.5,72.5 Z"/></g>
<g><path style="opacity:1" fill="#edeeed" d="M 606.5,72.5 C 646.833,72.5 687.167,72.5 727.5,72.5C 727.5,112.833 727.5,153.167 727.5,193.5C 687.167,193.5 646.833,193.5 606.5,193.5C 606.5,153.167 606.5,112.833 606.5,72.5 Z"/></g>
<g><path style="opacity:1" fill="#335383" d="M 96.5,96.5 C 120.833,96.5 145.167,96.5 169.5,96.5C 169.5,120.833 169.5,145.167 169.5,169.5C 145.167,169.5 120.833,169.5 96.5,169.5C 96.5,145.167 96.5,120.833 96.5,96.5 Z"/></g>
<g><path style="opacity:1" fill="#edeeed" d="M 387.5,121.5 C 387.5,113.167 387.5,104.833 387.5,96.5C 395.833,96.5 404.167,96.5 412.5,96.5C 412.5,104.833 412.5,113.167 412.5,121.5C 404.167,121.5 395.833,121.5 387.5,121.5 Z"/></g>
<g><path style="opacity:1" fill="#335383" d="M 630.5,96.5 C 654.833,96.5 679.167,96.5 703.5,96.5C 703.5,120.833 703.5,145.167 703.5,169.5C 679.167,169.5 654.833,169.5 630.5,169.5C 630.5,145.167 630.5,120.833 630.5,96.5 Z"/></g>
<g><path style="opacity:1" fill="#edeeed" d="M 387.5,121.5 C 387.5,129.5 387.5,137.5 387.5,145.5C 395.833,145.5 404.167,145.5 412.5,145.5C 412.5,153.5 412.5,161.5 412.5,169.5C 428.5,169.5 444.5,169.5 460.5,169.5C 460.5,177.5 460.5,185.5 460.5,193.5C 452.5,193.5 444.5,193.5 436.5,193.5C 436.5,217.833 436.5,242.167 436.5,266.5C 404.167,266.5 371.833,266.5 339.5,266.5C 339.5,258.5 339.5,250.5 339.5,242.5C 347.5,242.5 355.5,242.5 363.5,242.5C 363.5,226.167 363.5,209.833 363.5,193.5C 355.5,193.5 347.5,193.5 339.5,193.5C 339.5,169.5 339.5,145.5 339.5,121.5C 355.5,121.5 371.5,121.5 387.5,121.5 Z"/></g>
<g><path style="opacity:1" fill="#edeeed" d="M 533.5,218.5 C 525.5,218.5 517.5,218.5 509.5,218.5C 509.5,210.167 509.5,201.833 509.5,193.5C 501.167,193.5 492.833,193.5 484.5,193.5C 484.5,185.5 484.5,177.5 484.5,169.5C 500.833,169.5 517.167,169.5 533.5,169.5C 533.5,185.833 533.5,202.167 533.5,218.5 Z"/></g>
<g><path style="opacity:1" fill="#edeeed" d="M 339.5,193.5 C 339.5,209.833 339.5,226.167 339.5,242.5C 331.5,242.5 323.5,242.5 315.5,242.5C 315.5,226.167 315.5,209.833 315.5,193.5C 323.5,193.5 331.5,193.5 339.5,193.5 Z"/></g>
<g><path style="opacity:1" fill="#335383" d="M 339.5,193.5 C 347.5,193.5 355.5,193.5 363.5,193.5C 363.5,209.833 363.5,226.167 363.5,242.5C 355.5,242.5 347.5,242.5 339.5,242.5C 339.5,226.167 339.5,209.833 339.5,193.5 Z"/></g>
<g><path style="opacity:1" fill="#335383" d="M 387.5,193.5 C 395.833,193.5 404.167,193.5 412.5,193.5C 412.5,209.833 412.5,226.167 412.5,242.5C 404.167,242.5 395.833,242.5 387.5,242.5C 387.5,226.167 387.5,209.833 387.5,193.5 Z"/></g>
<g><path style="opacity:1" fill="#335383" d="M 460.5,193.5 C 460.5,209.833 460.5,226.167 460.5,242.5C 468.5,242.5 476.5,242.5 484.5,242.5C 484.5,250.5 484.5,258.5 484.5,266.5C 468.5,266.5 452.5,266.5 436.5,266.5C 436.5,242.167 436.5,217.833 436.5,193.5C 444.5,193.5 452.5,193.5 460.5,193.5 Z"/></g>
<g><path style="opacity:1" fill="#edeeed" d="M 460.5,193.5 C 468.5,193.5 476.5,193.5 484.5,193.5C 484.5,209.833 484.5,226.167 484.5,242.5C 476.5,242.5 468.5,242.5 460.5,242.5C 460.5,226.167 460.5,209.833 460.5,193.5 Z"/></g>
<g><path style="opacity:1" fill="#335383" d="M 484.5,193.5 C 492.833,193.5 501.167,193.5 509.5,193.5C 509.5,201.833 509.5,210.167 509.5,218.5C 517.5,218.5 525.5,218.5 533.5,218.5C 533.5,226.5 533.5,234.5 533.5,242.5C 517.167,242.5 500.833,242.5 484.5,242.5C 484.5,226.167 484.5,209.833 484.5,193.5 Z"/></g>
<g><path style="opacity:1" fill="#335383" d="M 48.5,242.5 C 56.5,242.5 64.5,242.5 72.5,242.5C 72.5,250.5 72.5,258.5 72.5,266.5C 64.5,266.5 56.5,266.5 48.5,266.5C 48.5,258.5 48.5,250.5 48.5,242.5 Z"/></g>
<g><path style="opacity:1" fill="#335383" d="M 218.5,266.5 C 210.167,266.5 201.833,266.5 193.5,266.5C 193.5,274.5 193.5,282.5 193.5,290.5C 201.833,290.5 210.167,290.5 218.5,290.5C 218.5,298.833 218.5,307.167 218.5,315.5C 202.167,315.5 185.833,315.5 169.5,315.5C 169.5,307.167 169.5,298.833 169.5,290.5C 161.5,290.5 153.5,290.5 145.5,290.5C 145.5,298.833 145.5,307.167 145.5,315.5C 137.5,315.5 129.5,315.5 121.5,315.5C 121.5,299.167 121.5,282.833 121.5,266.5C 113.167,266.5 104.833,266.5 96.5,266.5C 96.5,258.5 96.5,250.5 96.5,242.5C 137.167,242.5 177.833,242.5 218.5,242.5C 218.5,250.5 218.5,258.5 218.5,266.5 Z"/></g>
<g><path style="opacity:1" fill="#335383" d="M 703.5,339.5 C 703.5,347.5 703.5,355.5 703.5,363.5C 687.167,363.5 670.833,363.5 654.5,363.5C 654.5,355.5 654.5,347.5 654.5,339.5C 638.5,339.5 622.5,339.5 606.5,339.5C 606.5,323.167 606.5,306.833 606.5,290.5C 574.167,290.5 541.833,290.5 509.5,290.5C 509.5,298.833 509.5,307.167 509.5,315.5C 501.167,315.5 492.833,315.5 484.5,315.5C 484.5,299.167 484.5,282.833 484.5,266.5C 516.833,266.5 549.167,266.5 581.5,266.5C 581.5,258.5 581.5,250.5 581.5,242.5C 622.167,242.5 662.833,242.5 703.5,242.5C 703.5,250.5 703.5,258.5 703.5,266.5C 687.167,266.5 670.833,266.5 654.5,266.5C 654.5,282.833 654.5,299.167 654.5,315.5C 662.5,315.5 670.5,315.5 678.5,315.5C 678.5,323.5 678.5,331.5 678.5,339.5C 686.833,339.5 695.167,339.5 703.5,339.5 Z"/></g>
<g><path style="opacity:1" fill="#edeeed" d="M 218.5,266.5 C 218.5,274.5 218.5,282.5 218.5,290.5C 210.167,290.5 201.833,290.5 193.5,290.5C 193.5,282.5 193.5,274.5 193.5,266.5C 201.833,266.5 210.167,266.5 218.5,266.5 Z"/></g>
<g><path style="opacity:1" fill="#335383" d="M 218.5,266.5 C 226.5,266.5 234.5,266.5 242.5,266.5C 242.5,274.5 242.5,282.5 242.5,290.5C 234.5,290.5 226.5,290.5 218.5,290.5C 218.5,282.5 218.5,274.5 218.5,266.5 Z"/></g>
<g><path style="opacity:1" fill="#edeeed" d="M 339.5,266.5 C 339.5,274.5 339.5,282.5 339.5,290.5C 331.5,290.5 323.5,290.5 315.5,290.5C 315.5,282.5 315.5,274.5 315.5,266.5C 323.5,266.5 331.5,266.5 339.5,266.5 Z"/></g>
<g><path style="opacity:1" fill="#335383" d="M 339.5,266.5 C 371.833,266.5 404.167,266.5 436.5,266.5C 436.5,274.5 436.5,282.5 436.5,290.5C 444.5,290.5 452.5,290.5 460.5,290.5C 460.5,298.833 460.5,307.167 460.5,315.5C 452.5,315.5 444.5,315.5 436.5,315.5C 436.5,331.5 436.5,347.5 436.5,363.5C 444.5,363.5 452.5,363.5 460.5,363.5C 460.5,371.5 460.5,379.5 460.5,387.5C 444.5,387.5 428.5,387.5 412.5,387.5C 412.5,379.5 412.5,371.5 412.5,363.5C 404.167,363.5 395.833,363.5 387.5,363.5C 387.5,355.5 387.5,347.5 387.5,339.5C 379.5,339.5 371.5,339.5 363.5,339.5C 363.5,347.5 363.5,355.5 363.5,363.5C 355.5,363.5 347.5,363.5 339.5,363.5C 339.5,355.5 339.5,347.5 339.5,339.5C 323.167,339.5 306.833,339.5 290.5,339.5C 290.5,331.5 290.5,323.5 290.5,315.5C 298.833,315.5 307.167,315.5 315.5,315.5C 315.5,307.167 315.5,298.833 315.5,290.5C 323.5,290.5 331.5,290.5 339.5,290.5C 339.5,282.5 339.5,274.5 339.5,266.5 Z"/></g>
<g><path style="opacity:1" fill="#335383" d="M 727.5,266.5 C 735.5,266.5 743.5,266.5 751.5,266.5C 751.5,274.5 751.5,282.5 751.5,290.5C 743.5,290.5 735.5,290.5 727.5,290.5C 727.5,282.5 727.5,274.5 727.5,266.5 Z"/></g>
<g><path style="opacity:1" fill="#edeeed" d="M 169.5,315.5 C 161.5,315.5 153.5,315.5 145.5,315.5C 145.5,307.167 145.5,298.833 145.5,290.5C 153.5,290.5 161.5,290.5 169.5,290.5C 169.5,298.833 169.5,307.167 169.5,315.5 Z"/></g>
<g><path style="opacity:1" fill="#edeeed" d="M 218.5,290.5 C 226.5,290.5 234.5,290.5 242.5,290.5C 242.5,298.833 242.5,307.167 242.5,315.5C 234.5,315.5 226.5,315.5 218.5,315.5C 218.5,307.167 218.5,298.833 218.5,290.5 Z"/></g>
<g><path style="opacity:1" fill="#335383" d="M 242.5,290.5 C 250.5,290.5 258.5,290.5 266.5,290.5C 266.5,306.833 266.5,323.167 266.5,339.5C 250.5,339.5 234.5,339.5 218.5,339.5C 218.5,331.5 218.5,323.5 218.5,315.5C 226.5,315.5 234.5,315.5 242.5,315.5C 242.5,307.167 242.5,298.833 242.5,290.5 Z"/></g>
<g><path style="opacity:1" fill="#edeeed" d="M 266.5,290.5 C 282.833,290.5 299.167,290.5 315.5,290.5C 315.5,298.833 315.5,307.167 315.5,315.5C 307.167,315.5 298.833,315.5 290.5,315.5C 290.5,323.5 290.5,331.5 290.5,339.5C 282.5,339.5 274.5,339.5 266.5,339.5C 266.5,323.167 266.5,306.833 266.5,290.5 Z"/></g>
<g><path style="opacity:1" fill="#edeeed" d="M 339.5,290.5 C 347.5,290.5 355.5,290.5 363.5,290.5C 363.5,298.833 363.5,307.167 363.5,315.5C 355.5,315.5 347.5,315.5 339.5,315.5C 339.5,307.167 339.5,298.833 339.5,290.5 Z"/></g>
<g><path style="opacity:1" fill="#edeeed" d="M 654.5,363.5 C 630.167,363.5 605.833,363.5 581.5,363.5C 581.5,355.5 581.5,347.5 581.5,339.5C 565.5,339.5 549.5,339.5 533.5,339.5C 533.5,331.5 533.5,323.5 533.5,315.5C 525.5,315.5 517.5,315.5 509.5,315.5C 509.5,307.167 509.5,298.833 509.5,290.5C 541.833,290.5 574.167,290.5 606.5,290.5C 606.5,306.833 606.5,323.167 606.5,339.5C 622.5,339.5 638.5,339.5 654.5,339.5C 654.5,347.5 654.5,355.5 654.5,363.5 Z"/></g>
<g><path style="opacity:1" fill="#335383" d="M 121.5,315.5 C 121.5,323.5 121.5,331.5 121.5,339.5C 105.167,339.5 88.8333,339.5 72.5,339.5C 72.5,331.5 72.5,323.5 72.5,315.5C 88.8333,315.5 105.167,315.5 121.5,315.5 Z"/></g>
<g><path style="opacity:1" fill="#335383" d="M 145.5,315.5 C 153.5,315.5 161.5,315.5 169.5,315.5C 169.5,323.5 169.5,331.5 169.5,339.5C 161.5,339.5 153.5,339.5 145.5,339.5C 145.5,331.5 145.5,323.5 145.5,315.5 Z"/></g>
<g><path style="opacity:1" fill="#edeeed" d="M 387.5,339.5 C 387.5,331.5 387.5,323.5 387.5,315.5C 395.833,315.5 404.167,315.5 412.5,315.5C 412.5,323.5 412.5,331.5 412.5,339.5C 404.167,339.5 395.833,339.5 387.5,339.5 Z"/></g>
<g><path style="opacity:1" fill="#335383" d="M 509.5,315.5 C 517.5,315.5 525.5,315.5 533.5,315.5C 533.5,323.5 533.5,331.5 533.5,339.5C 525.5,339.5 517.5,339.5 509.5,339.5C 509.5,331.5 509.5,323.5 509.5,315.5 Z"/></g>
<g><path style="opacity:1" fill="#335383" d="M 703.5,339.5 C 703.5,331.5 703.5,323.5 703.5,315.5C 711.5,315.5 719.5,315.5 727.5,315.5C 727.5,323.5 727.5,331.5 727.5,339.5C 719.5,339.5 711.5,339.5 703.5,339.5 Z"/></g>
<g><path style="opacity:1" fill="#335383" d="M 218.5,339.5 C 218.5,347.5 218.5,355.5 218.5,363.5C 210.167,363.5 201.833,363.5 193.5,363.5C 193.5,355.5 193.5,347.5 193.5,339.5C 201.833,339.5 210.167,339.5 218.5,339.5 Z"/></g>
<g><path style="opacity:1" fill="#335383" d="M 266.5,339.5 C 274.5,339.5 282.5,339.5 290.5,339.5C 290.5,347.5 290.5,355.5 290.5,363.5C 282.5,363.5 274.5,363.5 266.5,363.5C 266.5,355.5 266.5,347.5 266.5,339.5 Z"/></g>
<g><path style="opacity:1" fill="#335383" d="M 460.5,363.5 C 460.5,355.5 460.5,347.5 460.5,339.5C 468.5,339.5 476.5,339.5 484.5,339.5C 484.5,347.5 484.5,355.5 484.5,363.5C 476.5,363.5 468.5,363.5 460.5,363.5 Z"/></g>
<g><path style="opacity:1" fill="#335383" d="M 533.5,339.5 C 549.5,339.5 565.5,339.5 581.5,339.5C 581.5,347.5 581.5,355.5 581.5,363.5C 605.833,363.5 630.167,363.5 654.5,363.5C 654.5,371.5 654.5,379.5 654.5,387.5C 670.833,387.5 687.167,387.5 703.5,387.5C 703.5,395.833 703.5,404.167 703.5,412.5C 662.833,412.5 622.167,412.5 581.5,412.5C 581.5,404.167 581.5,395.833 581.5,387.5C 573.5,387.5 565.5,387.5 557.5,387.5C 557.5,403.833 557.5,420.167 557.5,436.5C 549.5,436.5 541.5,436.5 533.5,436.5C 533.5,420.167 533.5,403.833 533.5,387.5C 525.5,387.5 517.5,387.5 509.5,387.5C 509.5,379.5 509.5,371.5 509.5,363.5C 517.5,363.5 525.5,363.5 533.5,363.5C 533.5,355.5 533.5,347.5 533.5,339.5 Z"/></g>
<g><path style="opacity:1" fill="#335383" d="M 727.5,363.5 C 735.5,363.5 743.5,363.5 751.5,363.5C 751.5,371.5 751.5,379.5 751.5,387.5C 743.5,387.5 735.5,387.5 727.5,387.5C 727.5,379.5 727.5,371.5 727.5,363.5 Z"/></g>
<g><path style="opacity:1" fill="#335383" d="M 96.5,412.5 C 88.5,412.5 80.5,412.5 72.5,412.5C 72.5,404.167 72.5,395.833 72.5,387.5C 80.5,387.5 88.5,387.5 96.5,387.5C 96.5,395.833 96.5,404.167 96.5,412.5 Z"/></g>
<g><path style="opacity:1" fill="#335383" d="M 145.5,412.5 C 145.5,404.167 145.5,395.833 145.5,387.5C 169.833,387.5 194.167,387.5 218.5,387.5C 218.5,395.833 218.5,404.167 218.5,412.5C 194.167,412.5 169.833,412.5 145.5,412.5 Z"/></g>
<g><path style="opacity:1" fill="#335383" d="M 339.5,412.5 C 331.5,412.5 323.5,412.5 315.5,412.5C 315.5,420.5 315.5,428.5 315.5,436.5C 307.167,436.5 298.833,436.5 290.5,436.5C 290.5,444.5 290.5,452.5 290.5,460.5C 282.5,460.5 274.5,460.5 266.5,460.5C 266.5,452.5 266.5,444.5 266.5,436.5C 258.5,436.5 250.5,436.5 242.5,436.5C 242.5,428.5 242.5,420.5 242.5,412.5C 258.5,412.5 274.5,412.5 290.5,412.5C 290.5,404.167 290.5,395.833 290.5,387.5C 306.833,387.5 323.167,387.5 339.5,387.5C 339.5,395.833 339.5,404.167 339.5,412.5 Z"/></g>
<g><path style="opacity:1" fill="#335383" d="M 509.5,387.5 C 509.5,403.833 509.5,420.167 509.5,436.5C 501.167,436.5 492.833,436.5 484.5,436.5C 484.5,420.167 484.5,403.833 484.5,387.5C 492.833,387.5 501.167,387.5 509.5,387.5 Z"/></g>
<g><path style="opacity:1" fill="#edeeed" d="M 509.5,387.5 C 517.5,387.5 525.5,387.5 533.5,387.5C 533.5,403.833 533.5,420.167 533.5,436.5C 541.5,436.5 549.5,436.5 557.5,436.5C 557.5,420.167 557.5,403.833 557.5,387.5C 565.5,387.5 573.5,387.5 581.5,387.5C 581.5,395.833 581.5,404.167 581.5,412.5C 622.167,412.5 662.833,412.5 703.5,412.5C 703.5,420.5 703.5,428.5 703.5,436.5C 687.167,436.5 670.833,436.5 654.5,436.5C 654.5,444.5 654.5,452.5 654.5,460.5C 606.167,460.5 557.833,460.5 509.5,460.5C 509.5,468.5 509.5,476.5 509.5,484.5C 501.167,484.5 492.833,484.5 484.5,484.5C 484.5,500.833 484.5,517.167 484.5,533.5C 476.5,533.5 468.5,533.5 460.5,533.5C 460.5,541.5 460.5,549.5 460.5,557.5C 452.5,557.5 444.5,557.5 436.5,557.5C 436.5,541.5 436.5,525.5 436.5,509.5C 444.5,509.5 452.5,509.5 460.5,509.5C 460.5,501.167 460.5,492.833 460.5,484.5C 452.5,484.5 444.5,484.5 436.5,484.5C 436.5,476.5 436.5,468.5 436.5,460.5C 452.5,460.5 468.5,460.5 484.5,460.5C 484.5,452.5 484.5,444.5 484.5,436.5C 492.833,436.5 501.167,436.5 509.5,436.5C 509.5,420.167 509.5,403.833 509.5,387.5 Z"/></g>
<g><path style="opacity:1" fill="#335383" d="M 72.5,412.5 C 72.5,420.5 72.5,428.5 72.5,436.5C 80.5,436.5 88.5,436.5 96.5,436.5C 96.5,428.5 96.5,420.5 96.5,412.5C 112.833,412.5 129.167,412.5 145.5,412.5C 145.5,420.5 145.5,428.5 145.5,436.5C 177.833,436.5 210.167,436.5 242.5,436.5C 250.5,436.5 258.5,436.5 266.5,436.5C 266.5,444.5 266.5,452.5 266.5,460.5C 266.5,468.5 266.5,476.5 266.5,484.5C 290.833,484.5 315.167,484.5 339.5,484.5C 339.5,492.833 339.5,501.167 339.5,509.5C 315.167,509.5 290.833,509.5 266.5,509.5C 266.5,517.5 266.5,525.5 266.5,533.5C 250.5,533.5 234.5,533.5 218.5,533.5C 218.5,541.5 218.5,549.5 218.5,557.5C 177.833,557.5 137.167,557.5 96.5,557.5C 96.5,549.5 96.5,541.5 96.5,533.5C 120.833,533.5 145.167,533.5 169.5,533.5C 169.5,525.5 169.5,517.5 169.5,509.5C 145.167,509.5 120.833,509.5 96.5,509.5C 96.5,501.167 96.5,492.833 96.5,484.5C 120.833,484.5 145.167,484.5 169.5,484.5C 169.5,476.5 169.5,468.5 169.5,460.5C 137.167,460.5 104.833,460.5 72.5,460.5C 72.5,492.833 72.5,525.167 72.5,557.5C 64.5,557.5 56.5,557.5 48.5,557.5C 48.5,509.167 48.5,460.833 48.5,412.5C 56.5,412.5 64.5,412.5 72.5,412.5 Z"/></g>
<g><path style="opacity:1" fill="#edeeed" d="M 72.5,412.5 C 80.5,412.5 88.5,412.5 96.5,412.5C 96.5,420.5 96.5,428.5 96.5,436.5C 88.5,436.5 80.5,436.5 72.5,436.5C 72.5,428.5 72.5,420.5 72.5,412.5 Z"/></g>
<g><path style="opacity:1" fill="#edeeed" d="M 339.5,412.5 C 339.5,436.5 339.5,460.5 339.5,484.5C 315.167,484.5 290.833,484.5 266.5,484.5C 266.5,476.5 266.5,468.5 266.5,460.5C 274.5,460.5 282.5,460.5 290.5,460.5C 290.5,452.5 290.5,444.5 290.5,436.5C 298.833,436.5 307.167,436.5 315.5,436.5C 315.5,428.5 315.5,420.5 315.5,412.5C 323.5,412.5 331.5,412.5 339.5,412.5 Z"/></g>
<g><path style="opacity:1" fill="#335383" d="M 339.5,412.5 C 347.5,412.5 355.5,412.5 363.5,412.5C 363.5,428.5 363.5,444.5 363.5,460.5C 387.833,460.5 412.167,460.5 436.5,460.5C 436.5,468.5 436.5,476.5 436.5,484.5C 444.5,484.5 452.5,484.5 460.5,484.5C 460.5,492.833 460.5,501.167 460.5,509.5C 452.5,509.5 444.5,509.5 436.5,509.5C 436.5,525.5 436.5,541.5 436.5,557.5C 444.5,557.5 452.5,557.5 460.5,557.5C 460.5,549.5 460.5,541.5 460.5,533.5C 468.5,533.5 476.5,533.5 484.5,533.5C 484.5,517.167 484.5,500.833 484.5,484.5C 492.833,484.5 501.167,484.5 509.5,484.5C 509.5,492.833 509.5,501.167 509.5,509.5C 525.5,509.5 541.5,509.5 557.5,509.5C 557.5,517.5 557.5,525.5 557.5,533.5C 573.833,533.5 590.167,533.5 606.5,533.5C 606.5,525.5 606.5,517.5 606.5,509.5C 614.5,509.5 622.5,509.5 630.5,509.5C 630.5,517.5 630.5,525.5 630.5,533.5C 638.5,533.5 646.5,533.5 654.5,533.5C 654.5,541.5 654.5,549.5 654.5,557.5C 662.5,557.5 670.5,557.5 678.5,557.5C 678.5,549.5 678.5,541.5 678.5,533.5C 686.833,533.5 695.167,533.5 703.5,533.5C 703.5,525.5 703.5,517.5 703.5,509.5C 711.5,509.5 719.5,509.5 727.5,509.5C 727.5,517.5 727.5,525.5 727.5,533.5C 735.5,533.5 743.5,533.5 751.5,533.5C 751.5,549.5 751.5,565.5 751.5,581.5C 735.5,581.5 719.5,581.5 703.5,581.5C 703.5,589.833 703.5,598.167 703.5,606.5C 687.167,606.5 670.833,606.5 654.5,606.5C 654.5,622.5 654.5,638.5 654.5,654.5C 662.5,654.5 670.5,654.5 678.5,654.5C 678.5,646.5 678.5,638.5 678.5,630.5C 686.833,630.5 695.167,630.5 703.5,630.5C 703.5,646.5 703.5,662.5 703.5,678.5C 711.5,678.5 719.5,678.5 727.5,678.5C 727.5,694.833 727.5,711.167 727.5,727.5C 719.5,727.5 711.5,727.5 703.5,727.5C 703.5,719.5 703.5,711.5 703.5,703.5C 695.167,703.5 686.833,703.5 678.5,703.5C 678.5,711.5 678.5,719.5 678.5,727.5C 670.5,727.5 662.5,727.5 654.5,727.5C 654.5,735.5 654.5,743.5 654.5,751.5C 646.5,751.5 638.5,751.5 630.5,751.5C 630.5,743.5 630.5,735.5 630.5,727.5C 598.167,727.5 565.833,727.5 533.5,727.5C 533.5,719.5 533.5,711.5 533.5,703.5C 525.5,703.5 517.5,703.5 509.5,703.5C 509.5,695.167 509.5,686.833 509.5,678.5C 517.5,678.5 525.5,678.5 533.5,678.5C 533.5,662.5 533.5,646.5 533.5,630.5C 525.5,630.5 517.5,630.5 509.5,630.5C 509.5,614.167 509.5,597.833 509.5,581.5C 501.167,581.5 492.833,581.5 484.5,581.5C 484.5,589.833 484.5,598.167 484.5,606.5C 476.5,606.5 468.5,606.5 460.5,606.5C 460.5,598.167 460.5,589.833 460.5,581.5C 444.5,581.5 428.5,581.5 412.5,581.5C 412.5,573.5 412.5,565.5 412.5,557.5C 404.167,557.5 395.833,557.5 387.5,557.5C 387.5,549.5 387.5,541.5 387.5,533.5C 371.5,533.5 355.5,533.5 339.5,533.5C 339.5,525.5 339.5,517.5 339.5,509.5C 347.5,509.5 355.5,509.5 363.5,509.5C 363.5,501.167 363.5,492.833 363.5,484.5C 355.5,484.5 347.5,484.5 339.5,484.5C 339.5,460.5 339.5,436.5 339.5,412.5 Z"/></g>
<g><path style="opacity:1" fill="#335383" d="M 387.5,412.5 C 395.833,412.5 404.167,412.5 412.5,412.5C 412.5,420.5 412.5,428.5 412.5,436.5C 404.167,436.5 395.833,436.5 387.5,436.5C 387.5,428.5 387.5,420.5 387.5,412.5 Z"/></g>
<g><path style="opacity:1" fill="#335383" d="M 484.5,436.5 C 484.5,444.5 484.5,452.5 484.5,460.5C 468.5,460.5 452.5,460.5 436.5,460.5C 436.5,444.5 436.5,428.5 436.5,412.5C 444.5,412.5 452.5,412.5 460.5,412.5C 460.5,420.5 460.5,428.5 460.5,436.5C 468.5,436.5 476.5,436.5 484.5,436.5 Z"/></g>
<g><path style="opacity:1" fill="#335383" d="M 703.5,412.5 C 711.5,412.5 719.5,412.5 727.5,412.5C 727.5,420.5 727.5,428.5 727.5,436.5C 719.5,436.5 711.5,436.5 703.5,436.5C 703.5,428.5 703.5,420.5 703.5,412.5 Z"/></g>
<g><path style="opacity:1" fill="#edeeed" d="M 242.5,436.5 C 250.5,436.5 258.5,436.5 266.5,436.5C 266.5,444.5 266.5,452.5 266.5,460.5C 258.5,460.5 250.5,460.5 242.5,460.5C 242.5,452.5 242.5,444.5 242.5,436.5 Z"/></g>
<g><path style="opacity:1" fill="#335383" d="M 703.5,436.5 C 703.5,460.833 703.5,485.167 703.5,509.5C 695.167,509.5 686.833,509.5 678.5,509.5C 678.5,493.167 678.5,476.833 678.5,460.5C 670.5,460.5 662.5,460.5 654.5,460.5C 654.5,452.5 654.5,444.5 654.5,436.5C 670.833,436.5 687.167,436.5 703.5,436.5 Z"/></g>
<g><path style="opacity:1" fill="#edeeed" d="M 218.5,484.5 C 210.167,484.5 201.833,484.5 193.5,484.5C 193.5,476.5 193.5,468.5 193.5,460.5C 201.833,460.5 210.167,460.5 218.5,460.5C 218.5,468.5 218.5,476.5 218.5,484.5 Z"/></g>
<g><path style="opacity:1" fill="#335383" d="M 654.5,460.5 C 654.5,476.833 654.5,493.167 654.5,509.5C 646.5,509.5 638.5,509.5 630.5,509.5C 630.5,501.167 630.5,492.833 630.5,484.5C 614.167,484.5 597.833,484.5 581.5,484.5C 581.5,492.833 581.5,501.167 581.5,509.5C 573.5,509.5 565.5,509.5 557.5,509.5C 557.5,501.167 557.5,492.833 557.5,484.5C 541.5,484.5 525.5,484.5 509.5,484.5C 509.5,476.5 509.5,468.5 509.5,460.5C 557.833,460.5 606.167,460.5 654.5,460.5 Z"/></g>
<g><path style="opacity:1" fill="#edeeed" d="M 654.5,460.5 C 662.5,460.5 670.5,460.5 678.5,460.5C 678.5,476.833 678.5,493.167 678.5,509.5C 686.833,509.5 695.167,509.5 703.5,509.5C 703.5,517.5 703.5,525.5 703.5,533.5C 695.167,533.5 686.833,533.5 678.5,533.5C 678.5,541.5 678.5,549.5 678.5,557.5C 670.5,557.5 662.5,557.5 654.5,557.5C 654.5,549.5 654.5,541.5 654.5,533.5C 646.5,533.5 638.5,533.5 630.5,533.5C 630.5,525.5 630.5,517.5 630.5,509.5C 638.5,509.5 646.5,509.5 654.5,509.5C 654.5,493.167 654.5,476.833 654.5,460.5 Z"/></g>
<g><path style="opacity:1" fill="#335383" d="M 727.5,460.5 C 735.5,460.5 743.5,460.5 751.5,460.5C 751.5,468.5 751.5,476.5 751.5,484.5C 743.5,484.5 735.5,484.5 727.5,484.5C 727.5,476.5 727.5,468.5 727.5,460.5 Z"/></g>
<g><path style="opacity:1" fill="#edeeed" d="M 218.5,484.5 C 226.5,484.5 234.5,484.5 242.5,484.5C 242.5,492.833 242.5,501.167 242.5,509.5C 234.5,509.5 226.5,509.5 218.5,509.5C 218.5,501.167 218.5,492.833 218.5,484.5 Z"/></g>
<g><path style="opacity:1" fill="#edeeed" d="M 339.5,484.5 C 347.5,484.5 355.5,484.5 363.5,484.5C 363.5,492.833 363.5,501.167 363.5,509.5C 355.5,509.5 347.5,509.5 339.5,509.5C 339.5,501.167 339.5,492.833 339.5,484.5 Z"/></g>
<g><path style="opacity:1" fill="#edeeed" d="M 509.5,484.5 C 525.5,484.5 541.5,484.5 557.5,484.5C 557.5,492.833 557.5,501.167 557.5,509.5C 541.5,509.5 525.5,509.5 509.5,509.5C 509.5,501.167 509.5,492.833 509.5,484.5 Z"/></g>
<g><path style="opacity:1" fill="#edeeed" d="M 630.5,509.5 C 622.5,509.5 614.5,509.5 606.5,509.5C 606.5,517.5 606.5,525.5 606.5,533.5C 590.167,533.5 573.833,533.5 557.5,533.5C 557.5,525.5 557.5,517.5 557.5,509.5C 565.5,509.5 573.5,509.5 581.5,509.5C 581.5,501.167 581.5,492.833 581.5,484.5C 597.833,484.5 614.167,484.5 630.5,484.5C 630.5,492.833 630.5,501.167 630.5,509.5 Z"/></g>
<g><path style="opacity:1" fill="#edeeed" d="M 218.5,509.5 C 218.5,517.5 218.5,525.5 218.5,533.5C 210.167,533.5 201.833,533.5 193.5,533.5C 193.5,525.5 193.5,517.5 193.5,509.5C 201.833,509.5 210.167,509.5 218.5,509.5 Z"/></g>
<g><path style="opacity:1" fill="#edeeed" d="M 339.5,509.5 C 339.5,517.5 339.5,525.5 339.5,533.5C 331.5,533.5 323.5,533.5 315.5,533.5C 315.5,541.5 315.5,549.5 315.5,557.5C 307.167,557.5 298.833,557.5 290.5,557.5C 290.5,549.5 290.5,541.5 290.5,533.5C 282.5,533.5 274.5,533.5 266.5,533.5C 266.5,525.5 266.5,517.5 266.5,509.5C 290.833,509.5 315.167,509.5 339.5,509.5 Z"/></g>
<g><path style="opacity:1" fill="#edeeed" d="M 387.5,533.5 C 387.5,525.5 387.5,517.5 387.5,509.5C 395.833,509.5 404.167,509.5 412.5,509.5C 412.5,517.5 412.5,525.5 412.5,533.5C 404.167,533.5 395.833,533.5 387.5,533.5 Z"/></g>
<g><path style="opacity:1" fill="#335383" d="M 266.5,533.5 C 274.5,533.5 282.5,533.5 290.5,533.5C 290.5,541.5 290.5,549.5 290.5,557.5C 298.833,557.5 307.167,557.5 315.5,557.5C 315.5,565.5 315.5,573.5 315.5,581.5C 323.5,581.5 331.5,581.5 339.5,581.5C 339.5,597.833 339.5,614.167 339.5,630.5C 331.5,630.5 323.5,630.5 315.5,630.5C 315.5,622.5 315.5,614.5 315.5,606.5C 307.167,606.5 298.833,606.5 290.5,606.5C 290.5,598.167 290.5,589.833 290.5,581.5C 274.5,581.5 258.5,581.5 242.5,581.5C 242.5,573.5 242.5,565.5 242.5,557.5C 250.5,557.5 258.5,557.5 266.5,557.5C 266.5,549.5 266.5,541.5 266.5,533.5 Z"/></g>
<g><path style="opacity:1" fill="#335383" d="M 339.5,533.5 C 339.5,541.5 339.5,549.5 339.5,557.5C 331.5,557.5 323.5,557.5 315.5,557.5C 315.5,549.5 315.5,541.5 315.5,533.5C 323.5,533.5 331.5,533.5 339.5,533.5 Z"/></g>
<g><path style="opacity:1" fill="#edeeed" d="M 509.5,533.5 C 517.5,533.5 525.5,533.5 533.5,533.5C 533.5,541.5 533.5,549.5 533.5,557.5C 525.5,557.5 517.5,557.5 509.5,557.5C 509.5,549.5 509.5,541.5 509.5,533.5 Z"/></g>
<g><path style="opacity:1" fill="#edeeed" d="M 557.5,557.5 C 581.833,557.5 606.167,557.5 630.5,557.5C 630.5,581.833 630.5,606.167 630.5,630.5C 606.167,630.5 581.833,630.5 557.5,630.5C 557.5,606.167 557.5,581.833 557.5,557.5 Z"/></g>
<g><path style="opacity:1" fill="#335383" d="M 48.5,581.5 C 105.167,581.5 161.833,581.5 218.5,581.5C 218.5,638.167 218.5,694.833 218.5,751.5C 161.833,751.5 105.167,751.5 48.5,751.5C 48.5,694.833 48.5,638.167 48.5,581.5 Z"/></g>
<g><path style="opacity:1" fill="#edeeed" d="M 509.5,630.5 C 501.167,630.5 492.833,630.5 484.5,630.5C 484.5,638.5 484.5,646.5 484.5,654.5C 476.5,654.5 468.5,654.5 460.5,654.5C 460.5,638.5 460.5,622.5 460.5,606.5C 468.5,606.5 476.5,606.5 484.5,606.5C 484.5,598.167 484.5,589.833 484.5,581.5C 492.833,581.5 501.167,581.5 509.5,581.5C 509.5,597.833 509.5,614.167 509.5,630.5 Z"/></g>
<g><path style="opacity:1" fill="#335383" d="M 581.5,581.5 C 589.833,581.5 598.167,581.5 606.5,581.5C 606.5,589.833 606.5,598.167 606.5,606.5C 598.167,606.5 589.833,606.5 581.5,606.5C 581.5,598.167 581.5,589.833 581.5,581.5 Z"/></g>
<g><path style="opacity:1" fill="#edeeed" d="M 72.5,606.5 C 112.833,606.5 153.167,606.5 193.5,606.5C 193.5,646.833 193.5,687.167 193.5,727.5C 153.167,727.5 112.833,727.5 72.5,727.5C 72.5,687.167 72.5,646.833 72.5,606.5 Z"/></g>
<g><path style="opacity:1" fill="#335383" d="M 290.5,606.5 C 290.5,630.5 290.5,654.5 290.5,678.5C 282.5,678.5 274.5,678.5 266.5,678.5C 266.5,686.833 266.5,695.167 266.5,703.5C 258.5,703.5 250.5,703.5 242.5,703.5C 242.5,671.167 242.5,638.833 242.5,606.5C 258.5,606.5 274.5,606.5 290.5,606.5 Z"/></g>
<g><path style="opacity:1" fill="#edeeed" d="M 290.5,606.5 C 298.833,606.5 307.167,606.5 315.5,606.5C 315.5,614.5 315.5,622.5 315.5,630.5C 323.5,630.5 331.5,630.5 339.5,630.5C 339.5,638.5 339.5,646.5 339.5,654.5C 331.5,654.5 323.5,654.5 315.5,654.5C 315.5,662.5 315.5,670.5 315.5,678.5C 307.167,678.5 298.833,678.5 290.5,678.5C 290.5,654.5 290.5,630.5 290.5,606.5 Z"/></g>
<g><path style="opacity:1" fill="#335383" d="M 387.5,606.5 C 395.833,606.5 404.167,606.5 412.5,606.5C 412.5,614.5 412.5,622.5 412.5,630.5C 404.167,630.5 395.833,630.5 387.5,630.5C 387.5,622.5 387.5,614.5 387.5,606.5 Z"/></g>
<g><path style="opacity:1" fill="#335383" d="M 460.5,606.5 C 460.5,622.5 460.5,638.5 460.5,654.5C 452.5,654.5 444.5,654.5 436.5,654.5C 436.5,638.5 436.5,622.5 436.5,606.5C 444.5,606.5 452.5,606.5 460.5,606.5 Z"/></g>
<g><path style="opacity:1" fill="#edeeed" d="M 703.5,606.5 C 703.5,614.5 703.5,622.5 703.5,630.5C 695.167,630.5 686.833,630.5 678.5,630.5C 678.5,638.5 678.5,646.5 678.5,654.5C 670.5,654.5 662.5,654.5 654.5,654.5C 654.5,638.5 654.5,622.5 654.5,606.5C 670.833,606.5 687.167,606.5 703.5,606.5 Z"/></g>
<g><path style="opacity:1" fill="#335383" d="M 703.5,606.5 C 711.5,606.5 719.5,606.5 727.5,606.5C 727.5,614.5 727.5,622.5 727.5,630.5C 719.5,630.5 711.5,630.5 703.5,630.5C 703.5,622.5 703.5,614.5 703.5,606.5 Z"/></g>
<g><path style="opacity:1" fill="#335383" d="M 96.5,630.5 C 120.833,630.5 145.167,630.5 169.5,630.5C 169.5,654.833 169.5,679.167 169.5,703.5C 145.167,703.5 120.833,703.5 96.5,703.5C 96.5,679.167 96.5,654.833 96.5,630.5 Z"/></g>
<g><path style="opacity:1" fill="#335383" d="M 339.5,630.5 C 347.5,630.5 355.5,630.5 363.5,630.5C 363.5,638.5 363.5,646.5 363.5,654.5C 355.5,654.5 347.5,654.5 339.5,654.5C 339.5,646.5 339.5,638.5 339.5,630.5 Z"/></g>
<g><path style="opacity:1" fill="#335383" d="M 509.5,630.5 C 509.5,646.5 509.5,662.5 509.5,678.5C 501.167,678.5 492.833,678.5 484.5,678.5C 484.5,686.833 484.5,695.167 484.5,703.5C 492.833,703.5 501.167,703.5 509.5,703.5C 509.5,711.5 509.5,719.5 509.5,727.5C 493.167,727.5 476.833,727.5 460.5,727.5C 460.5,719.5 460.5,711.5 460.5,703.5C 452.5,703.5 444.5,703.5 436.5,703.5C 436.5,719.5 436.5,735.5 436.5,751.5C 420.167,751.5 403.833,751.5 387.5,751.5C 387.5,743.5 387.5,735.5 387.5,727.5C 395.833,727.5 404.167,727.5 412.5,727.5C 412.5,719.5 412.5,711.5 412.5,703.5C 396.167,703.5 379.833,703.5 363.5,703.5C 363.5,695.167 363.5,686.833 363.5,678.5C 371.5,678.5 379.5,678.5 387.5,678.5C 387.5,670.5 387.5,662.5 387.5,654.5C 403.833,654.5 420.167,654.5 436.5,654.5C 436.5,662.5 436.5,670.5 436.5,678.5C 444.5,678.5 452.5,678.5 460.5,678.5C 460.5,670.5 460.5,662.5 460.5,654.5C 468.5,654.5 476.5,654.5 484.5,654.5C 484.5,646.5 484.5,638.5 484.5,630.5C 492.833,630.5 501.167,630.5 509.5,630.5 Z"/></g>
<g><path style="opacity:1" fill="#edeeed" d="M 509.5,630.5 C 517.5,630.5 525.5,630.5 533.5,630.5C 533.5,646.5 533.5,662.5 533.5,678.5C 525.5,678.5 517.5,678.5 509.5,678.5C 509.5,662.5 509.5,646.5 509.5,630.5 Z"/></g>
<g><path style="opacity:1" fill="#335383" d="M 727.5,630.5 C 735.5,630.5 743.5,630.5 751.5,630.5C 751.5,638.5 751.5,646.5 751.5,654.5C 743.5,654.5 735.5,654.5 727.5,654.5C 727.5,646.5 727.5,638.5 727.5,630.5 Z"/></g>
<g><path style="opacity:1" fill="#335383" d="M 339.5,654.5 C 339.5,662.5 339.5,670.5 339.5,678.5C 331.5,678.5 323.5,678.5 315.5,678.5C 315.5,670.5 315.5,662.5 315.5,654.5C 323.5,654.5 331.5,654.5 339.5,654.5 Z"/></g>
<g><path style="opacity:1" fill="#edeeed" d="M 436.5,654.5 C 444.5,654.5 452.5,654.5 460.5,654.5C 460.5,662.5 460.5,670.5 460.5,678.5C 452.5,678.5 444.5,678.5 436.5,678.5C 436.5,670.5 436.5,662.5 436.5,654.5 Z"/></g>
<g><path style="opacity:1" fill="#edeeed" d="M 654.5,654.5 C 654.5,662.5 654.5,670.5 654.5,678.5C 622.167,678.5 589.833,678.5 557.5,678.5C 557.5,670.5 557.5,662.5 557.5,654.5C 589.833,654.5 622.167,654.5 654.5,654.5 Z"/></g>
<g><path style="opacity:1" fill="#335383" d="M 290.5,678.5 C 298.833,678.5 307.167,678.5 315.5,678.5C 315.5,686.833 315.5,695.167 315.5,703.5C 307.167,703.5 298.833,703.5 290.5,703.5C 290.5,695.167 290.5,686.833 290.5,678.5 Z"/></g>
<g><path style="opacity:1" fill="#edeeed" d="M 509.5,678.5 C 509.5,686.833 509.5,695.167 509.5,703.5C 501.167,703.5 492.833,703.5 484.5,703.5C 484.5,695.167 484.5,686.833 484.5,678.5C 492.833,678.5 501.167,678.5 509.5,678.5 Z"/></g>
<g><path style="opacity:1" fill="#335383" d="M 363.5,703.5 C 363.5,711.5 363.5,719.5 363.5,727.5C 355.5,727.5 347.5,727.5 339.5,727.5C 339.5,719.5 339.5,711.5 339.5,703.5C 347.5,703.5 355.5,703.5 363.5,703.5 Z"/></g>
<g><path style="opacity:1" fill="#edeeed" d="M 703.5,727.5 C 695.167,727.5 686.833,727.5 678.5,727.5C 678.5,719.5 678.5,711.5 678.5,703.5C 686.833,703.5 695.167,703.5 703.5,703.5C 703.5,711.5 703.5,719.5 703.5,727.5 Z"/></g>
<g><path style="opacity:1" fill="#335383" d="M 242.5,727.5 C 258.5,727.5 274.5,727.5 290.5,727.5C 290.5,735.5 290.5,743.5 290.5,751.5C 274.5,751.5 258.5,751.5 242.5,751.5C 242.5,743.5 242.5,735.5 242.5,727.5 Z"/></g>
<g><path style="opacity:1" fill="#335383" d="M 339.5,727.5 C 339.5,735.5 339.5,743.5 339.5,751.5C 331.5,751.5 323.5,751.5 315.5,751.5C 315.5,743.5 315.5,735.5 315.5,727.5C 323.5,727.5 331.5,727.5 339.5,727.5 Z"/></g>
<g><path style="opacity:1" fill="#335383" d="M 678.5,727.5 C 686.833,727.5 695.167,727.5 703.5,727.5C 703.5,735.5 703.5,743.5 703.5,751.5C 695.167,751.5 686.833,751.5 678.5,751.5C 678.5,743.5 678.5,735.5 678.5,727.5 Z"/></g>
</svg>
